<svg width="32" height="32" viewBox="0 0 32 32" fill="none" xmlns="http://www.w3.org/2000/svg">
<rect x="0.5" y="0.5" width="31" height="31" rx="7.5" fill="black" stroke="black"/>
<path d="M24.0938 5.84375V11H22.3594V10.3594C22.3594 9.67188 22.3385 9.14583 22.2969 8.78125C22.2552 8.40625 22.1823 8.13542 22.0781 7.96875C21.9844 7.79167 21.8542 7.69271 21.6875 7.67188C21.5312 7.64062 21.3385 7.625 21.1094 7.625H13.3906V14.8438H17.875C17.9583 14.8438 18.0365 14.849 18.1094 14.8594C18.1927 14.8594 18.2708 14.8594 18.3438 14.8594C18.4688 14.8594 18.5781 14.849 18.6719 14.8281C18.7656 14.7969 18.8438 14.7344 18.9062 14.6406C18.9688 14.5469 19.0156 14.4167 19.0469 14.25C19.0885 14.0729 19.1146 13.8333 19.125 13.5312H20.2344V17.7656H19.125C19.1146 17.4427 19.0833 17.1927 19.0312 17.0156C18.9792 16.8385 18.901 16.7083 18.7969 16.625C18.6927 16.5417 18.5677 16.4948 18.4219 16.4844C18.276 16.4635 18.1042 16.4531 17.9062 16.4531H13.3906V23.4062C13.3906 23.6667 13.4271 23.8698 13.5 24.0156C13.5729 24.151 13.6875 24.2552 13.8438 24.3281C14 24.3906 14.2083 24.4271 14.4688 24.4375C14.7292 24.4479 15.0469 24.4531 15.4219 24.4531H16.2656V26C15.9427 26 15.625 26 15.3125 26C15.0104 26 14.6927 26 14.3594 26C14.0365 26 13.6875 26 13.3125 26C12.9375 25.9896 12.526 25.9792 12.0781 25.9688C11.599 25.9688 11.1667 25.974 10.7812 25.9844C10.4062 25.9844 10.0469 25.9844 9.70312 25.9844C9.36979 25.9844 9.04167 25.9896 8.71875 26C8.39583 26 8.0625 26 7.71875 26V24.4531H9.54688C9.77604 24.4531 9.95833 24.4271 10.0938 24.375C10.2292 24.3229 10.3281 24.2448 10.3906 24.1406C10.4531 24.0365 10.4896 23.9062 10.5 23.75C10.5208 23.5938 10.5312 23.4115 10.5312 23.2031V8.79688C10.5312 8.53646 10.526 8.31771 10.5156 8.14062C10.5156 7.95312 10.4844 7.80729 10.4219 7.70312C10.3594 7.58854 10.2604 7.51042 10.125 7.46875C9.98958 7.41667 9.79688 7.39062 9.54688 7.39062H7.8125V5.84375H24.0938Z" fill="white"/>
</svg>
