<svg width="128" height="128" viewBox="0 0 128 128" fill="none" xmlns="http://www.w3.org/2000/svg">
<rect x="0.5" y="0.5" width="127" height="127" rx="23.5" fill="black" stroke="#EEEEEE"/>
<path d="M55.2812 31.5312V47H50.0781V45.0781C50.0781 43.0156 50.0156 41.4375 49.8906 40.3438C49.7656 39.2188 49.5469 38.4062 49.2344 37.9062C48.9531 37.375 48.5625 37.0781 48.0625 37.0156C47.5938 36.9219 47.0156 36.875 46.3281 36.875H23.1719V58.5312H36.625C36.875 58.5312 37.1094 58.5469 37.3281 58.5781C37.5781 58.5781 37.8125 58.5781 38.0312 58.5781C38.4062 58.5781 38.7344 58.5469 39.0156 58.4844C39.2969 58.3906 39.5312 58.2031 39.7188 57.9219C39.9062 57.6406 40.0469 57.25 40.1406 56.75C40.2656 56.2188 40.3438 55.5 40.375 54.5938H43.7031V67.2969H40.375C40.3438 66.3281 40.25 65.5781 40.0938 65.0469C39.9375 64.5156 39.7031 64.125 39.3906 63.875C39.0781 63.625 38.7031 63.4844 38.2656 63.4531C37.8281 63.3906 37.3125 63.3594 36.7188 63.3594H23.1719V84.2188C23.1719 85 23.2812 85.6094 23.5 86.0469C23.7188 86.4531 24.0625 86.7656 24.5312 86.9844C25 87.1719 25.625 87.2812 26.4062 87.3125C27.1875 87.3438 28.1406 87.3594 29.2656 87.3594H31.7969V92C30.8281 92 29.875 92 28.9375 92C28.0312 92 27.0781 92 26.0781 92C25.1094 92 24.0625 92 22.9375 92C21.8125 91.9688 20.5781 91.9375 19.2344 91.9062C17.7969 91.9062 16.5 91.9219 15.3438 91.9531C14.2188 91.9531 13.1406 91.9531 12.1094 91.9531C11.1094 91.9531 10.125 91.9688 9.15625 92C8.1875 92 7.1875 92 6.15625 92V87.3594H11.6406C12.3281 87.3594 12.875 87.2812 13.2812 87.125C13.6875 86.9688 13.9844 86.7344 14.1719 86.4219C14.3594 86.1094 14.4688 85.7188 14.5 85.25C14.5625 84.7812 14.5938 84.2344 14.5938 83.6094V40.3906C14.5938 39.6094 14.5781 38.9531 14.5469 38.4219C14.5469 37.8594 14.4531 37.4219 14.2656 37.1094C14.0781 36.7656 13.7812 36.5312 13.375 36.4062C12.9688 36.25 12.3906 36.1719 11.6406 36.1719H6.4375V31.5312H55.2812ZM69.4844 48.9688C72.7656 48.9688 75.7812 49.4844 78.5312 50.5156C81.2812 51.5469 83.6406 53.0312 85.6094 54.9688C87.6094 56.9062 89.1562 59.25 90.25 62C91.3438 64.75 91.8906 67.7656 91.8906 71.0469C91.8906 74.2031 91.3438 77.1562 90.25 79.9062C89.1562 82.625 87.625 84.9531 85.6562 86.8906C83.6875 88.8281 81.3281 90.3281 78.5781 91.3906C75.8281 92.4531 72.7969 92.9844 69.4844 92.9844C66.1719 92.9844 63.1406 92.4688 60.3906 91.4375C57.6719 90.375 55.3281 88.875 53.3594 86.9375C51.3906 84.9688 49.8594 82.625 48.7656 79.9062C47.7031 77.1562 47.1719 74.2031 47.1719 71.0469C47.1719 67.7656 47.7188 64.7656 48.8125 62.0469C49.9062 59.2969 51.4375 56.9531 53.4062 55.0156C55.375 53.0469 57.7188 51.5469 60.4375 50.5156C63.1875 49.4844 66.2031 48.9688 69.4844 48.9688ZM69.4844 53.8438C67.2969 53.8438 65.3281 54.25 63.5781 55.0625C61.8281 55.875 60.3281 57.0156 59.0781 58.4844C57.8594 59.9531 56.9219 61.7656 56.2656 63.9219C55.6094 66.0469 55.2812 68.4062 55.2812 71C55.2812 73.4375 55.6094 75.7344 56.2656 77.8906C56.9531 80.0156 57.9062 81.8438 59.125 83.375C60.375 84.875 61.875 86.0312 63.625 86.8438C65.375 87.6562 67.3281 88.0625 69.4844 88.0625C71.6406 88.0625 73.5938 87.6562 75.3438 86.8438C77.0938 86.0312 78.5938 84.875 79.8438 83.375C81.0938 81.8438 82.0469 80.0156 82.7031 77.8906C83.3906 75.7344 83.7344 73.4375 83.7344 71C83.7344 68.4375 83.3906 66.0781 82.7031 63.9219C82.0469 61.7656 81.0938 59.9531 79.8438 58.4844C78.625 57.0156 77.125 55.875 75.3438 55.0625C73.5938 54.25 71.6406 53.8438 69.4844 53.8438ZM112.469 84.5469C112.469 85.3281 112.609 85.9375 112.891 86.375C113.203 86.8125 113.656 87.1406 114.25 87.3594C114.875 87.5781 115.625 87.7188 116.5 87.7812C117.406 87.8125 118.469 87.8281 119.688 87.8281V92C118.812 92 117.953 92 117.109 92C116.266 92 115.391 92 114.484 92C113.609 92 112.688 92 111.719 92C110.75 91.9688 109.688 91.9375 108.531 91.9062C107.406 91.9062 106.359 91.9219 105.391 91.9531C104.422 91.9531 103.5 91.9531 102.625 91.9531C101.75 91.9531 100.906 91.9688 100.094 92C99.2812 92 98.4531 92 97.6094 92C97.6094 91.75 97.6094 91.4375 97.6094 91.0625C97.6094 90.6875 97.5938 90.3125 97.5625 89.9375C97.5625 89.5312 97.5625 89.1406 97.5625 88.7656C97.5625 88.3906 97.5625 88.0781 97.5625 87.8281C99.3438 87.8281 100.703 87.75 101.641 87.5938C102.609 87.4375 103.312 87.2031 103.75 86.8906C104.188 86.5781 104.438 86.1875 104.5 85.7188C104.594 85.25 104.641 84.6875 104.641 84.0312V38C104.641 37.4375 104.484 37 104.172 36.6875C103.891 36.375 103.453 36.1562 102.859 36.0312C102.266 35.875 101.547 35.7812 100.703 35.75C99.8594 35.7188 98.8906 35.6875 97.7969 35.6562V31.4375C100.266 31.4375 102.656 31.4219 104.969 31.3906C107.281 31.3594 109.781 31.3125 112.469 31.25V84.5469Z" fill="#EEEEEE"/>
</svg>
